<?xml version="1.0" standalone="no"?>
<!DOCTYPE svg PUBLIC "-//W3C//DTD SVG 20010904//EN"
 "http://www.w3.org/TR/2001/REC-SVG-20010904/DTD/svg10.dtd">
<svg version="1.0" xmlns="http://www.w3.org/2000/svg"
 width="260.000000pt" height="260.000000pt" viewBox="0 0 260.000000 260.000000"
 preserveAspectRatio="xMidYMid meet">
<metadata>
Created by potrace 1.11, written by Peter Selinger 2001-2013
</metadata>
<g transform="translate(0.000000,260.000000) scale(0.100000,-0.100000)"
fill="#000000" stroke="none">
<path d="M1395 1900 c-33 -9 -78 -26 -101 -37 -51 -27 -132 -100 -168 -151
l-27 -40 -52 23 c-129 60 -285 70 -366 24 -43 -24 -83 -78 -95 -131 -5 -21
-21 -34 -79 -62 -42 -20 -96 -57 -128 -88 -56 -54 -122 -151 -134 -199 -5 -22
-14 -28 -47 -32 -82 -11 -139 -104 -113 -181 17 -48 33 -66 79 -87 139 -62
266 119 159 226 -16 17 -15 20 24 54 66 58 149 104 190 105 36 1 37 0 39 -38
1 -21 5 -49 8 -61 3 -12 8 -40 11 -61 3 -21 8 -45 10 -51 2 -7 -2 -16 -9 -20
-52 -33 -61 -116 -17 -165 26 -29 35 -33 81 -33 47 0 55 3 81 35 43 51 40 102
-7 146 -19 19 -39 34 -43 34 -5 0 -9 46 -10 102 l-2 102 27 -24 c77 -69 121
-144 153 -260 l21 -75 -36 38 c-35 37 -64 48 -64 25 0 -7 18 -32 40 -56 42
-45 68 -88 73 -121 2 -11 6 -24 10 -27 4 -4 7 -15 7 -24 0 -38 135 -72 285
-73 91 0 241 12 269 22 11 5 24 9 29 9 123 5 283 94 247 137 -8 10 -9 15 -1
15 6 0 11 14 11 30 0 53 24 95 54 98 108 9 178 141 128 241 -24 48 -82 92
-130 98 -35 5 -41 9 -44 35 -4 25 3 36 43 72 77 69 184 80 346 36 102 -27 120
-39 104 -68 -13 -25 -5 -86 16 -118 67 -103 233 -65 248 57 11 85 -48 153
-134 154 -42 0 -54 6 -102 47 -72 61 -139 100 -224 129 -58 19 -91 23 -190 24
-66 0 -134 -4 -152 -8 -30 -8 -33 -6 -53 32 -26 51 -75 108 -109 125 -57 30
-94 34 -156 16z m158 -218 c17 -18 16 -20 -18 -43 -19 -13 -35 -27 -35 -31 0
-5 -4 -8 -9 -8 -5 0 -8 12 -5 28 14 93 14 93 32 83 10 -5 25 -18 35 -29z
m-738 2 c59 -28 123 -96 157 -170 17 -36 28 -68 24 -71 -3 -4 -19 5 -34 19
-80 75 -189 116 -292 111 -44 -2 -70 1 -70 7 0 27 30 78 60 104 28 23 41 27
74 24 23 -3 59 -13 81 -24z m660 -6 c-2 -13 -7 -51 -10 -85 -2 -35 -8 -89 -11
-120 -15 -133 -3 -283 22 -283 8 0 14 -4 14 -10 0 -5 -6 -7 -13 -4 -19 7 -41
-23 -67 -93 -23 -66 -41 -88 -62 -80 -8 3 -5 6 6 6 16 1 17 6 11 39 -13 65
-13 298 1 379 18 109 55 214 92 256 20 23 23 22 17 -5z m215 -34 c22 -56 59
-269 50 -278 -7 -7 -10 -2 -11 12 -1 12 -2 25 -3 30 -1 4 -5 29 -10 55 -4 27
-10 59 -12 70 -3 12 -9 44 -14 70 -5 27 -12 53 -15 58 -4 5 -4 9 0 9 3 0 10
-12 15 -26z m342 -48 c64 -17 242 -95 233 -104 -2 -2 -22 3 -45 12 -105 42
-220 58 -305 43 -61 -11 -93 -27 -132 -67 l-30 -31 -12 58 c-13 65 -12 66 72
94 58 18 131 17 219 -5z m416 -96 c18 -11 37 -32 43 -48 14 -36 14 -93 -1
-102 -6 -4 -10 -11 -9 -16 3 -11 -58 -54 -76 -54 -7 0 -27 16 -43 35 -25 28
-30 40 -25 68 6 36 -15 64 -42 53 -23 -9 -19 -63 5 -71 11 -3 20 -10 20 -14 0
-4 14 -22 31 -39 34 -35 27 -40 -25 -18 -35 15 -66 66 -66 111 0 89 107 144
188 95z m-770 -90 l18 -54 -32 -28 c-17 -15 -39 -43 -48 -62 -17 -37 -21 -103
-7 -125 7 -10 2 -30 -15 -60 -53 -103 -71 -103 -78 -2 -6 105 30 236 95 350
18 32 34 50 40 44 5 -5 17 -33 27 -63z m-951 -6 c62 -30 158 -129 206 -212 41
-71 99 -233 87 -245 -4 -5 -20 12 -35 37 -35 59 -92 111 -109 97 -9 -8 -16 -1
-25 27 -31 88 -118 194 -186 226 -82 39 -195 5 -314 -94 -71 -59 -70 -47 3 30
139 146 261 190 373 134z m1143 -83 c126 -93 47 -294 -110 -279 -85 8 -142 69
-143 153 -2 128 150 203 253 126z m-1230 5 c25 -5 25 -7 26 -111 1 -104 1
-105 -23 -105 -12 0 -23 3 -24 8 -2 18 -10 71 -19 121 -13 74 -13 101 3 97 6
-3 23 -7 37 -10z m-337 -163 c45 -41 56 -118 22 -169 -20 -31 -80 -56 -121
-51 -107 15 -147 148 -66 221 43 38 122 37 165 -1z m977 7 c11 -8 8 -9 -13 -4
-20 4 -34 1 -50 -12 l-22 -19 19 23 c21 24 42 28 66 12z m-236 -39 c3 -4 -6
-6 -19 -3 -14 2 -25 6 -25 8 0 8 39 4 44 -5z m-318 -62 c21 -17 32 -70 22
-101 -21 -60 -110 -80 -156 -35 -48 49 -22 149 42 159 26 5 73 -7 92 -23z
m194 -126 c0 -45 -35 -13 -36 32 0 17 -4 44 -8 60 -6 20 0 14 18 -20 14 -27
26 -60 26 -72z m762 93 c6 4 9 1 6 -6 -9 -27 -28 -22 -27 7 1 17 3 21 6 10 2
-9 9 -14 15 -11z m-422 -121 c0 -7 -30 -13 -34 -7 -3 4 4 9 15 9 10 1 19 0 19
-2z m-57 -12 c-7 -2 -19 -2 -25 0 -7 3 -2 5 12 5 14 0 19 -2 13 -5z m514 1
c-3 -3 -12 -4 -19 -1 -8 3 -5 6 6 6 11 1 17 -2 13 -5z m-643 -22 c3 -5 -1 -9
-9 -9 -8 0 -12 4 -9 9 3 4 7 8 9 8 2 0 6 -4 9 -8z"/>
<path d="M2366 1493 c6 -5 15 -18 18 -31 5 -15 18 -25 37 -29 21 -4 32 -14 41
-39 7 -19 16 -34 20 -34 8 0 -9 46 -25 67 -5 7 -6 16 -3 21 11 18 -21 44 -60
48 -21 3 -34 1 -28 -3z"/>
<path d="M2290 1460 c0 -5 5 -10 11 -10 5 0 7 5 4 10 -3 6 -8 10 -11 10 -2 0
-4 -4 -4 -10z"/>
<path d="M1799 1326 c7 -9 11 -25 8 -37 -8 -30 10 -70 33 -76 10 -3 24 -17 30
-32 l10 -26 -3 26 c-2 15 2 34 9 44 10 13 10 23 2 41 -6 13 -14 24 -18 24 -4
0 -25 12 -46 26 -21 15 -32 19 -25 10z"/>
<path d="M1700 1310 c0 -5 -9 -17 -19 -27 -11 -10 -24 -30 -30 -44 -8 -22 -6
-31 10 -47 10 -12 19 -26 19 -32 0 -6 5 -8 11 -5 6 4 8 9 5 12 -3 3 4 17 14
31 23 29 25 50 5 75 -7 11 -11 25 -8 33 3 8 2 14 -1 14 -3 0 -6 -4 -6 -10z"/>
<path d="M184 1166 c-46 -25 -51 -34 -51 -103 0 -64 0 -65 9 -27 6 29 16 44
34 53 20 9 25 18 23 39 -2 15 0 33 4 40 9 14 9 14 -19 -2z"/>
<path d="M274 1158 c2 -9 0 -30 -6 -46 -9 -24 -9 -34 2 -48 15 -18 15 -62 -1
-78 -5 -6 -9 -15 -9 -20 1 -21 30 28 30 49 0 12 9 30 19 39 21 19 20 54 -2 71
-7 6 -19 19 -26 30 -8 13 -11 15 -7 3z"/>
<path d="M680 1053 c0 -16 10 -37 23 -49 l22 -21 2 32 c2 25 -3 37 -22 49 -25
16 -25 16 -25 -11z"/>
<path d="M592 1040 c-17 -28 2 -68 24 -49 16 13 15 60 -1 66 -6 2 -16 -6 -23
-17z"/>
<path d="M600 964 c0 -6 7 -19 16 -30 14 -18 14 -18 3 6 -14 31 -19 36 -19 24z"/>
<path d="M715 960 c-3 -5 -1 -10 4 -10 6 0 11 5 11 10 0 6 -2 10 -4 10 -3 0
-8 -4 -11 -10z"/>
</g>
</svg>
