<?xml version="1.0" standalone="no"?>
<!DOCTYPE svg PUBLIC "-//W3C//DTD SVG 20010904//EN"
 "http://www.w3.org/TR/2001/REC-SVG-20010904/DTD/svg10.dtd">
<svg version="1.0" xmlns="http://www.w3.org/2000/svg"
 width="512.000000pt" height="512.000000pt" viewBox="0 0 512.000000 512.000000"
 preserveAspectRatio="xMidYMid meet">
<metadata>
Created by potrace 1.11, written by Peter Selinger 2001-2013
</metadata>
<g transform="translate(0.000000,512.000000) scale(0.100000,-0.100000)"
fill="#000000" stroke="none">
<path d="M2760 4920 c-122 -21 -277 -113 -426 -253 -133 -124 -279 -286 -350
-388 l-27 -39 90 -93 c87 -90 228 -269 259 -328 8 -16 18 -29 23 -29 4 0 37
44 73 98 149 224 355 451 517 571 91 67 263 156 324 167 20 3 37 10 37 14 0
12 -66 91 -108 128 -125 113 -288 173 -412 152z"/>
<path d="M3300 4455 c-180 -51 -380 -203 -575 -436 -458 -548 -909 -1571
-1191 -2697 l-46 -183 47 -79 c63 -103 145 -211 155 -205 5 3 12 19 15 36 24
106 118 278 203 370 72 78 211 185 216 167 3 -7 12 -47 22 -88 23 -98 51 -169
119 -298 61 -114 136 -228 195 -294 l37 -42 31 46 c46 67 104 187 150 313 23
61 57 153 76 205 19 53 42 113 51 133 l16 38 42 -33 c163 -126 259 -243 363
-442 l52 -99 52 74 c53 76 164 294 196 386 l18 51 -61 154 c-159 396 -213 605
-213 826 0 140 21 238 76 350 134 274 374 353 605 199 197 -130 400 -431 616
-912 l54 -120 -5 320 c-6 409 -30 655 -96 985 -142 708 -438 1153 -845 1265
-87 24 -304 29 -375 10z"/>
<path d="M1255 4270 c-299 -78 -523 -275 -655 -575 -104 -239 -170 -599 -170
-937 0 -126 0 -128 23 -128 19 0 26 13 56 103 72 222 173 370 291 426 47 22
69 26 145 26 83 0 96 -3 165 -36 143 -68 234 -164 311 -324 75 -157 111 -339
125 -624 l7 -144 77 219 c166 473 366 929 548 1249 l45 80 -28 50 c-15 27 -56
91 -90 140 -269 386 -563 551 -850 475z"/>
<path d="M3675 2803 c-40 -10 -119 -80 -146 -130 -10 -19 -6 -30 38 -90 28
-37 74 -104 103 -148 29 -44 54 -81 55 -83 2 -2 30 2 64 9 55 12 61 15 61 39
0 55 -32 346 -40 367 -13 31 -80 49 -135 36z"/>
<path d="M360 2441 c-109 -36 -170 -116 -170 -223 1 -164 171 -275 320 -207
92 42 134 107 135 210 0 56 -4 73 -30 115 -40 64 -104 104 -176 109 -30 3 -65
1 -79 -4z"/>
<path d="M3774 2166 c-82 -38 -125 -108 -125 -202 0 -195 224 -302 370 -177
75 64 102 149 77 236 -42 142 -186 206 -322 143z"/>
<path d="M4642 1621 c-53 -14 -109 -57 -139 -108 -37 -63 -39 -156 -5 -220 71
-135 250 -165 361 -60 113 107 87 298 -51 368 -45 23 -118 32 -166 20z"/>
<path d="M3676 1218 c-93 -240 -214 -428 -379 -591 -66 -64 -122 -115 -124
-113 -2 2 -11 47 -19 100 -15 104 -54 215 -107 309 -43 77 -140 208 -148 199
-3 -4 -21 -50 -39 -102 -78 -226 -173 -386 -293 -495 l-70 -64 -49 40 c-122
102 -245 272 -358 490 l-67 131 -37 -57 c-89 -133 -133 -273 -150 -477 l-11
-138 -69 62 c-160 144 -320 350 -421 541 -26 48 -49 87 -50 85 -2 -2 -29 -111
-60 -243 -56 -237 -56 -241 -53 -371 3 -150 7 -158 88 -199 330 -165 1216
-178 2045 -29 267 48 572 132 686 190 81 40 110 146 70 258 -19 55 -335 546
-350 546 -4 0 -20 -33 -35 -72z"/>
</g>
</svg>
